HIERARCHY
ROOT Pelvis
{
	OFFSET 0.000000 0.000000 0.000000
	CHANNELS 6 Xposition Yposition Zposition Zrotation Yrotation Xrotation 
	JOINT Left_hip
	{
		OFFSET 0.069463 -0.088608 -0.009542
		CHANNELS 3 Zrotation Yrotation Xrotation
		JOINT Left_knee
		{
			OFFSET 0.030639 -0.359740 -0.005288
			CHANNELS 3 Zrotation Yrotation Xrotation
			JOINT Left_ankle
			{
				OFFSET -0.011068 -0.376034 -0.042462
				CHANNELS 3 Zrotation Yrotation Xrotation
				JOINT Left_foot
				{
					OFFSET 0.023192 -0.053321 0.111332
					CHANNELS 3 Zrotation Yrotation Xrotation
					End Site
					{
						OFFSET 0.000000 0.000000 0.000000
					}
				}
			}
		}
	}
	JOINT Right_hip
	{
		OFFSET -0.067438 -0.088025 -0.006263
		CHANNELS 3 Zrotation Yrotation Xrotation
		JOINT Right_knee
		{
			OFFSET -0.035962 -0.366229 -0.008063
			CHANNELS 3 Zrotation Yrotation Xrotation
			JOINT Right_ankle
			{
				OFFSET 0.013608 -0.375719 -0.040481
				CHANNELS 3 Zrotation Yrotation Xrotation
				JOINT Right_foot
				{
					OFFSET -0.021034 -0.045527 0.114617
					CHANNELS 3 Zrotation Yrotation Xrotation
					End Site
					{
						OFFSET 0.000000 0.000000 0.000000
					}
				}
			}
		}
	}
	JOINT Spine1
	{
		OFFSET -0.002610 0.101823 -0.019986
		CHANNELS 3 Zrotation Yrotation Xrotation
		JOINT Spine2
		{
			OFFSET 0.004114 0.128714 -0.000938
			CHANNELS 3 Zrotation Yrotation Xrotation
			JOINT Spine3
			{
				OFFSET 0.002191 0.048470 0.027684
				CHANNELS 3 Zrotation Yrotation Xrotation
				JOINT Neck
				{
					OFFSET -0.002856 0.198873 -0.044022
					CHANNELS 3 Zrotation Yrotation Xrotation
					JOINT Head
					{
						OFFSET 0.002981 0.062960 0.049860
						CHANNELS 3 Zrotation Yrotation Xrotation
						End Site
						{
							OFFSET 0.000000 0.000000 0.000000
						}
					}
				}
				JOINT Left_collar
				{
					OFFSET 0.073708 0.112550 -0.033440
					CHANNELS 3 Zrotation Yrotation Xrotation
					JOINT Left_shoulder
					{
						OFFSET 0.083291 0.030786 -0.008013
						CHANNELS 3 Zrotation Yrotation Xrotation
						JOINT Left_elbow
						{
							OFFSET 0.245601 -0.011792 -0.027873
							CHANNELS 3 Zrotation Yrotation Xrotation
							JOINT Left_wrist
							{
								OFFSET 0.232258 0.008622 -0.000487
								CHANNELS 3 Zrotation Yrotation Xrotation
								JOINT Left_palm
								{
									OFFSET 0.077300 -0.009457 -0.012851
									CHANNELS 3 Zrotation Yrotation Xrotation
									End Site
									{
										OFFSET 0.000000 0.000000 0.000000
									}
								}
							}
						}
					}
				}
				JOINT Right_collar
				{
					OFFSET -0.075339 0.110574 -0.037874
					CHANNELS 3 Zrotation Yrotation Xrotation
					JOINT Right_shoulder
					{
						OFFSET -0.086522 0.031207 -0.009986
						CHANNELS 3 Zrotation Yrotation Xrotation
						JOINT Right_elbow
						{
							OFFSET -0.237313 -0.011478 -0.019859
							CHANNELS 3 Zrotation Yrotation Xrotation
							JOINT Right_wrist
							{
								OFFSET -0.237599 0.007976 -0.003742
								CHANNELS 3 Zrotation Yrotation Xrotation
								JOINT Right_palm
								{
									OFFSET -0.076920 -0.006943 -0.009920
									CHANNELS 3 Zrotation Yrotation Xrotation
									End Site
									{
										OFFSET 0.000000 0.000000 0.000000
									}
								}
							}
						}
					}
				}
			}
		}
	}
}
MOTION
Frames: 10
Frame Time: 0.100000
-0.361752 -0.232964 1.159066 175.669183 15.013880 -16.084133 3.431563 4.311954 6.912871 -0.439210 1.929121 0.873319 4.965068 1.598722 -4.977706 -3.376201 20.283956 -5.668689 -7.239837 -4.110870 -0.224370 -1.457589 -5.971792 11.810448 3.519880 0.905158 -3.035242 1.767217 -9.621165 6.740108 -3.206861 0.446385 -0.844442 4.570307 -6.588861 19.701658 -0.340181 -0.954911 -8.186464 0.626461 -14.187465 18.824401 4.978396 -13.974868 -11.115518 -21.158275 -9.717020 1.791787 -61.824115 -9.386617 27.234202 139.327816 -73.209488 -115.443154 -7.941368 -3.395177 -10.261253 -23.073338 -12.324664 -15.578096 20.897592 13.561681 0.159851 55.256902 13.937295 21.876814 -159.133391 69.695048 -133.090842 -0.940240 1.618291 0.002105 24.706045 10.290816 -10.416246 
-0.358734 -0.233289 1.155491 175.698298 14.918014 -15.390280 3.380897 4.306787 5.898103 -0.338688 2.143408 0.846637 4.597342 1.724049 -4.598155 -3.001661 19.916871 -5.546337 -7.073811 -3.973100 -0.969748 -1.405428 -5.930033 11.178514 3.722960 0.763932 -2.562275 1.406278 -9.272507 6.358332 -3.283299 0.421927 -0.220975 4.550406 -6.695677 19.858238 -0.268030 -0.866971 -8.041577 0.660644 -13.641737 17.243794 5.492781 -13.820812 -12.389483 -20.782641 -10.065554 1.827626 -61.613814 -9.534864 27.127876 138.416329 -72.966324 -114.963670 -3.938123 -3.424257 -11.485096 -22.912395 -11.973476 -15.617885 20.750427 14.201216 0.127416 55.808322 15.096946 21.624868 -152.401274 68.826625 -128.581012 -6.442009 2.265115 -3.435352 24.801766 9.679041 -9.797391 
-0.358797 -0.232270 1.150955 175.607450 15.686549 -14.737319 3.271089 3.731294 4.177009 -0.491661 1.693986 2.079658 4.470079 1.764856 -4.751596 -2.909856 19.778481 -5.768640 -7.312372 -4.082956 -1.983704 -1.344410 -5.898439 11.689234 4.241104 0.258527 -2.624263 0.042279 -8.943268 6.235613 -3.115927 0.445212 0.770494 4.510027 -6.781260 18.513813 -0.103833 -0.915605 -7.849273 0.174203 -14.123251 16.440944 6.359272 -13.402776 -13.345168 -20.621955 -9.962975 1.667159 -61.294202 -9.641371 27.083631 140.030680 -73.250184 -116.357782 -4.191850 -3.571808 -11.654282 -22.924182 -12.015221 -15.359675 19.959824 13.379963 -0.576363 54.889154 14.624481 20.100076 -149.221514 68.028947 -126.179856 -6.183509 2.216801 -3.833785 25.020116 9.895018 -9.872939 
-0.353727 -0.224104 1.138209 175.307968 16.860123 -16.066458 3.520602 3.222055 4.133190 -0.997763 -0.897568 3.800074 4.311859 3.560633 -6.167180 0.174283 18.852705 -6.317142 -7.662044 -3.352512 -7.610578 -1.568373 -4.660385 23.650754 5.051820 -1.953260 -3.880025 -4.554086 -7.930553 3.507250 -2.299331 -0.425452 7.122880 3.957645 -6.020553 14.191916 0.520830 -0.736087 -6.183509 0.239372 -16.899862 12.455905 7.863242 -11.985527 -16.280902 -20.683694 -10.860934 0.161281 -60.506085 -10.058937 27.000451 144.223004 -71.998514 -121.049491 -9.967436 -1.464017 -10.425257 -24.865446 -13.674032 -14.943004 17.451850 15.328748 -2.612850 51.408078 15.541369 20.536360 -153.459062 69.582919 -133.259674 5.587573 0.804783 -9.902703 24.560791 10.492067 -9.811046 
-0.337437 -0.226721 1.128454 174.657900 18.389073 -13.396036 4.098687 3.098079 -0.288983 -0.652949 -1.436002 3.726625 1.983188 3.735051 -4.640911 2.727602 17.475848 -6.140597 -6.038371 -3.548375 -15.310456 -0.809362 -4.767050 23.672709 5.152220 -3.562902 -5.687856 -8.264389 -6.614933 2.595836 -0.720189 -0.879113 12.638695 3.195213 -5.306016 10.116218 1.312136 0.477559 -6.002310 0.756108 -19.677640 6.113325 10.722854 -11.459330 -20.193342 -19.409985 -13.970939 -1.395115 -59.551854 -10.349211 26.897425 145.445776 -71.386012 -122.142632 -6.026846 -1.360624 -13.301814 -24.263012 -13.172215 -13.199657 12.729436 20.802018 -5.029123 44.321428 25.987240 14.928754 -117.733296 68.669089 -104.890463 0.432801 0.300168 -15.827774 22.914334 9.413630 -9.262700 
-0.314297 -0.233698 1.141352 174.453035 22.320133 -9.215498 4.189310 2.796867 -4.493268 -0.011169 -2.244788 1.393500 -1.312067 4.048975 -2.348999 4.873931 13.774126 -4.880709 -4.479534 -2.937993 -17.225927 -0.637236 -2.217663 11.076415 5.522079 -5.571573 -2.074216 -9.712959 -3.415694 3.202522 1.088211 -0.590743 14.063345 2.060189 -4.796219 7.302569 1.497097 2.186719 -6.752458 -0.205235 -25.628974 2.153073 13.043419 -10.966607 -20.144795 -19.323986 -15.927730 -1.955306 -58.331121 -10.547617 27.541126 151.819237 -72.244670 -130.381140 0.394968 -0.868902 -19.161547 -22.986498 -12.260100 -10.208142 7.026667 24.656376 -7.198727 28.247115 38.038032 1.344656 -60.517941 57.319220 -60.889630 -4.961261 -2.737152 -18.952636 20.407619 9.516706 -9.145124 
-0.284465 -0.239401 1.178601 174.907113 29.184557 -7.150361 4.298042 2.083281 -6.648585 0.640953 -6.090282 1.191979 -4.371896 5.168404 -1.517166 6.669153 9.573759 -4.850192 -3.308388 -2.743784 -13.338949 -1.314725 1.115633 3.266967 3.748624 -9.209320 0.219584 -9.736345 0.420308 4.035694 2.201860 0.032076 13.503278 0.491474 -4.761403 7.809767 0.984333 3.501577 -7.136527 -1.608575 -33.388149 0.207973 15.654618 -11.670358 -19.532276 -20.742542 -17.409481 -0.932406 -55.317847 -11.186958 27.494279 162.665998 -73.286792 -145.300928 7.856408 0.943897 -24.108016 -23.157314 -12.229019 -7.930348 2.411287 26.995429 -8.120255 9.393971 41.370162 -15.666557 -32.430293 36.363407 -49.268599 -11.633131 -6.097475 -19.397848 19.616774 10.607610 -8.597065 
-0.251237 -0.247672 1.212413 173.991541 33.993763 -6.527280 6.000779 2.450788 -11.775290 0.805882 -7.895667 7.254653 -7.340064 6.262132 -0.183311 8.298250 6.841521 -6.813191 -1.217080 -4.590247 -12.966880 0.233787 0.987303 2.923906 2.564985 -12.336735 -1.164800 -10.819705 3.332068 5.083180 3.899566 0.595645 14.527944 -0.233816 -4.325730 7.075813 1.095528 4.611664 -6.865758 -2.529161 -38.485439 -0.759763 17.348908 -12.247919 -19.617515 -21.095797 -17.095595 -0.224089 -56.326191 -11.076626 26.943994 170.104225 -74.894927 -155.325735 11.715409 3.232018 -27.135633 -23.981446 -12.840484 -6.998340 -1.378812 27.650978 -8.532809 -2.236681 40.034851 -27.707209 -17.913794 20.973776 -47.839521 -14.351838 -8.078166 -17.741217 19.533652 12.182181 -8.689617 
-0.223807 -0.250996 1.237782 173.482475 38.406909 -6.060348 6.191691 3.201014 -18.085662 0.466849 -4.678211 14.885553 -8.615716 8.662753 0.228310 9.158230 5.753622 -8.030844 0.336061 -5.507649 -11.531421 0.393613 0.666778 0.430161 1.991632 -14.190310 -1.625767 -11.436143 4.754016 5.651870 5.067315 1.092739 15.645483 -0.198402 -4.758083 7.070564 1.467061 4.947970 -7.330000 -3.005769 -41.189919 -1.023757 18.731736 -11.766111 -20.295392 -21.680896 -17.444766 1.107479 -57.134563 -11.835969 25.894917 175.489426 -74.850533 -161.554214 11.795473 3.848961 -28.660934 -24.302168 -13.290734 -6.219964 -3.317533 27.034764 -8.281484 -7.944927 37.531199 -34.225195 -11.729541 13.311286 -45.668883 -12.438723 -8.785754 -13.093167 19.412175 13.844668 -9.394691 
-0.209487 -0.250404 1.254381 173.301654 40.444346 -5.452966 4.800927 3.781037 -19.184958 1.229670 -2.975392 12.850505 -9.157593 9.348702 1.302362 10.378924 5.943591 -7.055761 1.591613 -5.207278 -11.221750 0.045921 -0.452316 -0.849244 0.540853 -14.740924 -2.134274 -9.415611 4.192558 6.905877 6.056604 0.717183 15.806271 0.184834 -4.908476 7.538098 1.652147 4.949154 -8.132639 -2.622118 -41.264093 -1.204709 18.007856 -11.599314 -21.009353 -23.176475 -17.588409 1.325774 -57.131094 -11.840662 26.545077 174.358765 -74.834836 -160.164428 12.811517 4.125977 -27.854868 -24.818397 -13.982806 -6.331572 -2.408107 27.124895 -8.197171 -9.410834 36.617688 -33.934567 -12.080160 14.064151 -45.282826 -12.765092 -8.449076 -12.933245 19.774416 14.485677 -10.033396 
